
<region>
sample=../Samples/vowel_sustain/3/vowel_3_eb3.wav
lokey=50
hikey=50
pitch_keycenter=51

<region>
sample=../Samples/vowel_sustain/3/vowel_3_e3.wav
lokey=51
hikey=51
pitch_keycenter=52

<region>
sample=../Samples/vowel_sustain/3/vowel_3_f3.wav
lokey=52
hikey=52
pitch_keycenter=53

<region>
sample=../Samples/vowel_sustain/3/vowel_3_gb3.wav
tune=30
lokey=53
hikey=53
pitch_keycenter=54

<region>
sample=../Samples/vowel_sustain/3/vowel_3_g3.wav
tune=40
lokey=54
hikey=54
pitch_keycenter=55

<region>
sample=../Samples/vowel_sustain/3/vowel_3_ab3.wav
tune=20
lokey=55
hikey=55
pitch_keycenter=56

<region>
sample=../Samples/vowel_sustain/3/vowel_3_a3.wav
lokey=56
hikey=56
pitch_keycenter=57

<region>
sample=../Samples/vowel_sustain/3/vowel_3_bb3.wav
lokey=57
hikey=57
pitch_keycenter=58

<region>
sample=../Samples/vowel_sustain/3/vowel_3_b3.wav
tune=15
lokey=58
hikey=58
pitch_keycenter=59

<region>
sample=../Samples/vowel_sustain/3/vowel_3_c4.wav
lokey=59
hikey=59

<region>
sample=../Samples/vowel_sustain/3/vowel_3_db4.wav
lokey=60
hikey=60
pitch_keycenter=61

<region>
sample=../Samples/vowel_sustain/3/vowel_3_d4.wav
lokey=61
hikey=61
pitch_keycenter=62

<region>
sample=../Samples/vowel_sustain/3/vowel_3_eb4.wav
lokey=62
hikey=62
pitch_keycenter=63

<region>
sample=../Samples/vowel_sustain/3/vowel_3_e4.wav
lokey=63
hikey=63
pitch_keycenter=64

<region>
sample=../Samples/vowel_sustain/3/vowel_3_f4.wav
lokey=64
hikey=64
pitch_keycenter=65

<region>
sample=../Samples/vowel_sustain/3/vowel_3_gb4.wav
lokey=65
hikey=65
pitch_keycenter=66

<region>
sample=../Samples/vowel_sustain/3/vowel_3_g4.wav
tune=30
lokey=66
hikey=66
pitch_keycenter=67

<region>
sample=../Samples/vowel_sustain/3/vowel_3_ab4.wav
tune=15
lokey=67
hikey=67
pitch_keycenter=68

<region>
sample=../Samples/vowel_sustain/3/vowel_3_a4.wav
lokey=68
hikey=68
pitch_keycenter=69

<region>
sample=../Samples/vowel_sustain/3/vowel_3_bb4.wav
tune=20
lokey=69
hikey=69
pitch_keycenter=70

<region>
sample=../Samples/vowel_sustain/3/vowel_3_ab4.wav
tune=15
lokey=70
hikey=70
pitch_keycenter=68
